# xmcd
#
# Track frame offsets:
#  150
#  17617
#  37203
#  56568
#  73578
#  90245
#  106688
#  123842
#  139023
#  155954
#  180191
#
# Disc length: 2525 seconds
#
# Revision: 0
# Processed by: cddbd v1.5.1PL2 Copyright (c) Steve Scherf et al.
# Submitted via: Collectorz.com_Music_Collector 6.10
#
DISCID=8709db0b
DTITLE=James Southwell - Dark Angel
DYEAR=2006
DGENRE=Blues
TTITLE0=Better
TTITLE1=Finally Home
TTITLE2=Morning Good Morning
TTITLE3=Jump This Ship
TTITLE4=Guitar Band
TTITLE5=Strange Imagination
TTITLE6=What's Up Dolly?
TTITLE7=Supersonic Jet
TTITLE8=Horse To Water
TTITLE9=Yer Blues
TTITLE10=Big Love
EXTD=
EXTT0=
EXTT1=
EXTT2=
EXTT3=
EXTT4=
EXTT5=
EXTT6=
EXTT7=
EXTT8=
EXTT9=
EXTT10=
PLAYORDER=
